<svg viewBox="0 0 138 45" fill="none" xmlns="http://www.w3.org/2000/svg">
    <style>
        
        .path-anim {
            fill-opacity: 0;
            stroke-width: 0.5px;
            stroke-linecap: round;
            stroke-linejoin: round;
            stroke-dasharray: 1000; 
            stroke-dashoffset: 1000;
            animation: draw 3s ease-in-out forwards, fillIn 1s ease-in-out 2.5s forwards, pulse 4s infinite 4s;
        }

        .path-magenta { stroke: #DB38F0; fill: #DB38F0; }
        .path-cyan { stroke: #00FFFF; fill: #00FFFF; }

        @keyframes draw {
            to { stroke-dashoffset: 0; }
        }

        @keyframes fillIn {
            to { fill-opacity: 1; stroke-opacity: 0; } 
        }

        @keyframes pulse {
            0% { filter: drop-shadow(0 0 1px rgba(219, 56, 240, 0.5)); opacity: 0.9; }
            50% { filter: drop-shadow(0 0 3px rgba(0, 255, 255, 0.8)); opacity: 1; }
            100% { filter: drop-shadow(0 0 1px rgba(219, 56, 240, 0.5)); opacity: 0.9; }
        }
    </style>

    <rect x="-50" y="-50" width="200" height="200" fill="none" />

    <defs>
        <filter id="neon-glow" x="-50%" y="-50%" width="200%" height="200%">
            <feGaussianBlur in="SourceGraphic" stdDeviation="1.5" result="blur" />
            <feColorMatrix in="blur" type="matrix" values="
                1 0 0 0 0
                0 1 0 0 0
                0 0 1 0 0
                0 0 0 18 -7" result="goo" />
            <feComposite in="SourceGraphic" in2="goo" operator="atop"/>
        </filter>
    </defs>

    <g transform="translate(10, 10)">
        <path class="path-anim path-magenta" d="M28.1581 11.0075C28.6969 11.931 28.6969 13.069 28.1581 13.9925L22.6422 23.4485C22.1034 24.3721 21.1078 24.941 20.0303 24.941H8.99846C7.92096 24.941 6.92531 24.3721 6.38655 23.4485L0.870632 13.9925C0.33188 13.069 0.33188 11.931 0.870632 11.0075L6.38655 1.5515C6.92531 0.62791 7.92096 0.05896 8.99846 0.05896H20.0303C21.1078 0.05896 22.1034 0.627914 22.6422 1.5515L28.1581 11.0075Z"/>
        
        <path class="path-anim path-cyan" d="M30.7971 10.8209C31.3359 11.7445 31.3359 12.8824 30.7971 13.8059L27.2604 19.8689C26.7217 20.7925 25.726 21.3614 24.6485 21.3614H17.5751C16.4976 21.3614 15.502 20.7925 14.9632 19.8689L11.4266 13.8059C10.8878 12.8824 10.8878 11.7445 11.4266 10.8209L14.9632 4.75792C15.502 3.83434 16.4976 3.26538 17.5751 3.26538H24.6485C25.726 3.26538 26.7217 3.83434 27.2604 4.75792L30.7971 10.8209Z"/>
        
        <path class="path-anim path-magenta" d="M51.4978 2.85449V22.3881H47.5393V14.0765H39.0851V22.3881H35.1267V2.85449H39.0851V10.8862H47.5393V2.85449H51.4978ZM68.8245 14.3004C68.8245 14.8601 68.7868 15.3638 68.7114 15.8116H57.2602C57.3544 16.931 57.7503 17.8078 58.4477 18.4422C59.1451 19.0765 60.0028 19.3937 61.0207 19.3937C62.491 19.3937 63.5372 18.7687 64.1592 17.5187H68.4287C67.9763 19.0112 67.1092 20.2425 65.8274 21.2127C64.5456 22.1642 62.9717 22.6399 61.1055 22.6399C59.5975 22.6399 58.2404 22.3134 57.034 21.6605C55.8464 20.9888 54.9134 20.0467 54.2348 18.834C53.575 17.6213 53.2451 16.222 53.2451 14.6362C53.2451 13.0317 53.575 11.6231 54.2348 10.4105C54.8945 9.19778 55.8181 8.26494 57.0057 7.61195C58.1932 6.95897 59.5598 6.63248 61.1055 6.63248C62.5947 6.63248 63.9236 6.94964 65.0923 7.58397C66.2798 8.2183 67.194 9.12315 67.8349 10.2985C68.4947 11.4552 68.8245 12.7892 68.8245 14.3004ZM64.7247 13.181C64.7058 12.1735 64.3383 11.3713 63.622 10.7743C62.9057 10.1586 62.0292 9.85076 60.9924 9.85076C60.0122 9.85076 59.1828 10.1493 58.5042 10.7463C57.8445 11.3246 57.4392 12.1362 57.2884 13.181H64.7247ZM79.2349 22.3881L76.0116 17.5746L73.1558 22.3881H68.9146L74.0324 14.6082L68.8581 6.88434H73.3255L76.5205 11.6698L79.4046 6.88434H83.6458L78.4998 14.6082L83.7023 22.3881H79.2349ZM91.6769 22.6399C90.169 22.6399 88.8118 22.3134 87.6054 21.6605C86.399 20.9888 85.4471 20.0467 84.7496 18.834C84.071 17.6213 83.7317 16.222 83.7317 14.6362C83.7317 13.0504 84.0805 11.6511 84.7779 10.4384C85.4942 9.22576 86.465 8.29292 87.6902 7.63994C88.9155 6.9683 90.2821 6.63248 91.7901 6.63248C93.298 6.63248 94.6646 6.9683 95.8899 7.63994C97.1151 8.29292 98.0765 9.22576 98.7739 10.4384C99.4902 11.6511 99.8484 13.0504 99.8484 14.6362C99.8484 16.222 99.4808 17.6213 98.7456 18.834C98.0293 20.0467 97.0492 20.9888 95.8051 21.6605C94.5798 22.3134 93.2038 22.6399 91.6769 22.6399ZM91.6769 19.2258C92.3932 19.2258 93.0624 19.0578 93.6845 18.722C94.3254 18.3676 94.8343 17.8452 95.2113 17.1549C95.5883 16.4646 95.7768 15.625 95.7768 14.6362C95.7768 13.1623 95.3809 12.0336 94.5892 11.25C93.8164 10.4478 92.8645 10.0467 91.7335 10.0467C90.6025 10.0467 89.6506 10.4478 88.8777 11.25C88.1238 12.0336 87.7468 13.1623 87.7468 14.6362C87.7468 16.1101 88.1143 17.2481 88.8495 18.0504C89.6035 18.834 90.546 19.2258 91.6769 19.2258ZM108.577 22.6399C107.069 22.6399 105.711 22.3134 104.505 21.6605C103.299 20.9888 102.347 20.0467 101.649 18.834C100.971 17.6213 100.631 16.222 100.631 14.6362C100.631 13.0504 100.98 11.6511 101.678 10.4384C102.394 9.22576 103.365 8.29292 104.59 7.63994C105.815 6.9683 107.182 6.63248 108.69 6.63248C110.198 6.63248 111.564 6.9683 112.79 7.63994C114.015 8.29292 114.976 9.22576 115.674 10.4384C116.39 11.6511 116.748 13.0504 116.748 14.6362C116.748 16.222 116.38 17.6213 115.645 18.834C114.929 20.0467 113.949 20.9888 112.705 21.6605C111.479 22.3134 110.103 22.6399 108.577 22.6399ZM108.577 19.2258C109.293 19.2258 109.962 19.0578 110.584 18.722C111.225 18.3676 111.734 17.8452 112.111 17.1549C112.488 16.4646 112.676 15.625 112.676 14.6362C112.676 13.1623 112.281 12.0336 111.489 11.25C110.716 10.4478 109.764 10.0467 108.633 10.0467C107.502 10.0467 106.55 10.4478 105.777 11.25C105.023 12.0336 104.646 13.1623 104.646 14.6362C104.646 16.1101 105.014 17.2481 105.749 18.0504C106.503 18.834 107.446 19.2258 108.577 19.2258Z"/>
    </g>
</svg>