<svg width="18" height="18" viewBox="0 0 18 18" fill="none" xmlns="http://www.w3.org/2000/svg">
<path d="M0.939556 4.86556C1.67458 3.40283 2.80173 2.17321 4.19515 1.31402C5.58857 0.45483 7.19339 -0.000111693 8.83041 2.0569e-08C11.2102 2.0569e-08 13.2094 0.875094 14.738 2.30032L12.2063 4.83288C11.2906 3.95779 10.1267 3.51185 8.83041 3.51185C6.53009 3.51185 4.58298 5.06601 3.8898 7.15263C3.71319 7.68246 3.61252 8.2476 3.61252 8.83041C3.61252 9.41322 3.71319 9.97836 3.8898 10.5082C4.58387 12.5957 6.53009 14.149 8.83041 14.149C10.0181 14.149 11.0292 13.8355 11.8204 13.3057C12.2791 13.0037 12.6718 12.6118 12.9747 12.1537C13.2776 11.6957 13.4846 11.1809 13.5829 10.6406H8.83041V7.22504H17.1469C17.2511 7.80255 17.3076 8.40478 17.3076 9.03086C17.3076 11.7206 16.3451 13.9847 14.6744 15.5212C13.2138 16.8705 11.2146 17.6608 8.83041 17.6608C7.67065 17.6613 6.52217 17.4332 5.45061 16.9896C4.37905 16.546 3.4054 15.8956 2.58533 15.0755C1.76526 14.2554 1.11484 13.2818 0.67123 12.2102C0.227625 11.1386 -0.000463474 9.99017 7.07064e-07 8.83041C7.07064e-07 7.40518 0.340854 6.05766 0.939556 4.86556Z" fill="white"/>
</svg>
