<svg width="32" height="26" viewBox="0 0 32 26" fill="none" xmlns="http://www.w3.org/2000/svg">
<g clip-path="url(#clip0_2134_2939)">
<path d="M28.1581 11.5075C28.6969 12.431 28.6969 13.569 28.1581 14.4925L22.6422 23.9485C22.1034 24.8721 21.1078 25.441 20.0303 25.441H8.99844C7.92095 25.441 6.9253 24.8721 6.38653 23.9485L0.870616 14.4925C0.331865 13.569 0.331865 12.431 0.870616 11.5075L6.38653 2.0515C6.9253 1.12791 7.92095 0.55896 8.99844 0.55896H20.0303C21.1078 0.55896 22.1034 1.12791 22.6422 2.0515L28.1581 11.5075Z" fill="#DB38F0"/>
<path d="M30.7971 11.3209C31.3358 12.2445 31.3358 13.3824 30.7971 14.3059L27.2604 20.3689C26.7216 21.2925 25.726 21.8614 24.6485 21.8614H17.5751C16.4976 21.8614 15.502 21.2925 14.9632 20.3689L11.4265 14.3059C10.8878 13.3824 10.8878 12.2445 11.4265 11.3209L14.9632 5.25792C15.502 4.33434 16.4976 3.76538 17.5751 3.76538H24.6485C25.726 3.76538 26.7216 4.33434 27.2604 5.25792L30.7971 11.3209Z" fill="#00FFFF"/>
</g>
<defs>
<clipPath id="clip0_2134_2939">
<rect width="32" height="25" fill="white" transform="translate(0 0.5)"/>
</clipPath>
</defs>
</svg>
