<svg width="14" height="12" viewBox="0 0 14 12" fill="none" xmlns="http://www.w3.org/2000/svg">
<path d="M1.4 1.33333H3.5L4.9 0H9.1L10.5 1.33333H12.6C12.9713 1.33333 13.3274 1.47381 13.5899 1.72386C13.8525 1.97391 14 2.31304 14 2.66667V10.6667C14 11.0203 13.8525 11.3594 13.5899 11.6095C13.3274 11.8595 12.9713 12 12.6 12H1.4C1.0287 12 0.672601 11.8595 0.41005 11.6095C0.1475 11.3594 0 11.0203 0 10.6667V2.66667C0 2.31304 0.1475 1.97391 0.41005 1.72386C0.672601 1.47381 1.0287 1.33333 1.4 1.33333ZM7 3.33333C6.07174 3.33333 5.1815 3.68452 4.52513 4.30964C3.86875 4.93477 3.5 5.78261 3.5 6.66667C3.5 7.55072 3.86875 8.39857 4.52513 9.02369C5.1815 9.64881 6.07174 10 7 10C7.92826 10 8.8185 9.64881 9.47487 9.02369C10.1313 8.39857 10.5 7.55072 10.5 6.66667C10.5 5.78261 10.1313 4.93477 9.47487 4.30964C8.8185 3.68452 7.92826 3.33333 7 3.33333ZM7 4.66667C7.55695 4.66667 8.0911 4.87738 8.48492 5.25245C8.87875 5.62753 9.1 6.13623 9.1 6.66667C9.1 7.1971 8.87875 7.70581 8.48492 8.08088C8.0911 8.45595 7.55695 8.66667 7 8.66667C6.44305 8.66667 5.9089 8.45595 5.51508 8.08088C5.12125 7.70581 4.9 7.1971 4.9 6.66667C4.9 6.13623 5.12125 5.62753 5.51508 5.25245C5.9089 4.87738 6.44305 4.66667 7 4.66667Z" fill="white"/>
</svg>
