<svg width="18" height="10" viewBox="0 0 18 10" fill="none" xmlns="http://www.w3.org/2000/svg">
<path d="M4.99422 7.5C4.30057 7.5 3.71098 7.25694 3.22543 6.77083C2.73988 6.28472 2.49711 5.69444 2.49711 5C2.49711 4.30556 2.73988 3.71528 3.22543 3.22917C3.71098 2.74306 4.30057 2.5 4.99422 2.5C5.68786 2.5 6.27745 2.74306 6.763 3.22917C7.24855 3.71528 7.49132 4.30556 7.49132 5C7.49132 5.69444 7.24855 6.28472 6.763 6.77083C6.27745 7.25694 5.68786 7.5 4.99422 7.5ZM4.99422 10C6.06242 10 7.02658 9.69444 7.8867 9.08333C8.74681 8.47222 9.35028 7.66667 9.6971 6.66667H9.98843L11.0705 7.75C11.1537 7.83333 11.2439 7.89222 11.341 7.92667C11.4381 7.96111 11.5422 7.97861 11.6532 7.97917C11.7642 7.97972 11.8682 7.9625 11.9653 7.9275C12.0624 7.8925 12.1526 7.83333 12.2358 7.75L13.3179 6.66667L14.7746 7.8125C14.8578 7.88194 14.9516 7.93389 15.0559 7.96833C15.1602 8.00278 15.2676 8.01333 15.378 8C15.4885 7.98667 15.5892 7.95556 15.6802 7.90667C15.7712 7.85778 15.8508 7.79167 15.9191 7.70833L17.7919 5.5625C17.8613 5.47917 17.9134 5.38889 17.9484 5.29167C17.9833 5.19444 18.0005 5.09028 18 4.97917C17.9994 4.86806 17.9786 4.7675 17.9376 4.6775C17.8965 4.5875 17.841 4.5075 17.7711 4.4375L16.9179 3.58333C16.8347 3.5 16.7412 3.4375 16.6374 3.39583C16.5336 3.35417 16.426 3.33333 16.3144 3.33333H9.6971C9.36415 2.38889 8.77789 1.59722 7.93831 0.958333C7.09872 0.319445 6.11736 0 4.99422 0C3.60693 0 2.42774 0.486111 1.45665 1.45833C0.485549 2.43056 0 3.61111 0 5C0 6.38889 0.485549 7.56944 1.45665 8.54167C2.42774 9.51389 3.60693 10 4.99422 10Z" fill="white"/>
</svg>
