<svg width="85" height="67" viewBox="0 0 85 67" fill="none" xmlns="http://www.w3.org/2000/svg">
<path d="M74.6906 29.5C76.1197 31.9752 76.1197 35.0248 74.6906 37.5L60.0594 62.842C58.6303 65.3172 55.9893 66.842 53.1312 66.842H23.8688C21.0107 66.842 18.3697 65.3172 16.9406 62.842L2.3094 37.5C0.880338 35.0248 0.880339 31.9752 2.3094 29.5L16.9406 4.15802C18.3697 1.68281 21.0107 0.158024 23.8688 0.158024H53.1312C55.9893 0.158024 58.6303 1.68282 60.0594 4.15802L74.6906 29.5Z" fill="#C026D3"/>
<path d="M82.6906 28.5C84.1197 30.9752 84.1197 34.0248 82.6906 36.5L73.0594 53.1817C71.6303 55.6569 68.9893 57.1817 66.1312 57.1817H46.8688C44.0107 57.1817 41.3697 55.6569 39.9406 53.1817L30.3094 36.5C28.8803 34.0248 28.8803 30.9752 30.3094 28.5L39.9406 11.8183C41.3697 9.34307 44.0107 7.81828 46.8688 7.81828H66.1312C68.9893 7.81828 71.6303 9.34307 73.0594 11.8183L82.6906 28.5Z" fill="#67E8F9"/>
</svg>
