<svg width="461" height="76" viewBox="0 0 461 76" fill="none" xmlns="http://www.w3.org/2000/svg">
<path d="M74.6906 29.5C76.1197 31.9752 76.1197 35.0248 74.6906 37.5L60.0594 62.842C58.6303 65.3172 55.9893 66.842 53.1312 66.842H23.8688C21.0107 66.842 18.3697 65.3172 16.9406 62.842L2.3094 37.5C0.880338 35.0248 0.880339 31.9752 2.3094 29.5L16.9406 4.15802C18.3697 1.68281 21.0107 0.158024 23.8688 0.158024H53.1312C55.9893 0.158024 58.6303 1.68282 60.0594 4.15802L74.6906 29.5Z" fill="#C026D3"/>
<path d="M82.6906 28.5C84.1197 30.9752 84.1197 34.0248 82.6906 36.5L73.0594 53.1817C71.6303 55.6569 68.9893 57.1817 66.1312 57.1817H46.8688C44.0107 57.1817 41.3697 55.6569 39.9406 53.1817L30.3094 36.5C28.8803 34.0248 28.8803 30.9752 30.3094 28.5L39.9406 11.8183C41.3697 9.34307 44.0107 7.81828 46.8688 7.81828H66.1312C68.9893 7.81828 71.6303 9.34307 73.0594 11.8183L82.6906 28.5Z" fill="#67E8F9"/>
<path d="M137.6 7.65V60H127.1V37.725H104.675V60H94.175V7.65H104.675V29.175H127.1V7.65H137.6ZM183.56 38.325C183.56 39.825 183.46 41.175 183.26 42.375H152.885C153.135 45.375 154.185 47.725 156.035 49.425C157.885 51.125 160.16 51.975 162.86 51.975C166.76 51.975 169.535 50.3 171.185 46.95H182.51C181.31 50.95 179.01 54.25 175.61 56.85C172.21 59.4 168.035 60.675 163.085 60.675C159.085 60.675 155.485 59.8 152.285 58.05C149.135 56.25 146.66 53.725 144.86 50.475C143.11 47.225 142.235 43.475 142.235 39.225C142.235 34.925 143.11 31.15 144.86 27.9C146.61 24.65 149.06 22.15 152.21 20.4C155.36 18.65 158.985 17.775 163.085 17.775C167.035 17.775 170.56 18.625 173.66 20.325C176.81 22.025 179.235 24.45 180.935 27.6C182.685 30.7 183.56 34.275 183.56 38.325ZM172.685 35.325C172.635 32.625 171.66 30.475 169.76 28.875C167.86 27.225 165.535 26.4 162.785 26.4C160.185 26.4 157.985 27.2 156.185 28.8C154.435 30.35 153.36 32.525 152.96 35.325H172.685ZM211.174 60L202.624 47.1L195.049 60H183.799L197.374 39.15L183.649 18.45H195.499L203.974 31.275L211.624 18.45H222.874L209.224 39.15L223.024 60H211.174ZM244.177 60.675C240.177 60.675 236.577 59.8 233.377 58.05C230.177 56.25 227.652 53.725 225.802 50.475C224.002 47.225 223.102 43.475 223.102 39.225C223.102 34.975 224.027 31.225 225.877 27.975C227.777 24.725 230.352 22.225 233.602 20.475C236.852 18.675 240.477 17.775 244.477 17.775C248.477 17.775 252.102 18.675 255.352 20.475C258.602 22.225 261.152 24.725 263.002 27.975C264.902 31.225 265.852 34.975 265.852 39.225C265.852 43.475 264.877 47.225 262.927 50.475C261.027 53.725 258.427 56.25 255.127 58.05C251.877 59.8 248.227 60.675 244.177 60.675ZM244.177 51.525C246.077 51.525 247.852 51.075 249.502 50.175C251.202 49.225 252.552 47.825 253.552 45.975C254.552 44.125 255.052 41.875 255.052 39.225C255.052 35.275 254.002 32.25 251.902 30.15C249.852 28 247.327 26.925 244.327 26.925C241.327 26.925 238.802 28 236.752 30.15C234.752 32.25 233.752 35.275 233.752 39.225C233.752 43.175 234.727 46.225 236.677 48.375C238.677 50.475 241.177 51.525 244.177 51.525ZM289.004 60.675C285.004 60.675 281.404 59.8 278.204 58.05C275.004 56.25 272.479 53.725 270.629 50.475C268.829 47.225 267.929 43.475 267.929 39.225C267.929 34.975 268.854 31.225 270.704 27.975C272.604 24.725 275.179 22.225 278.429 20.475C281.679 18.675 285.304 17.775 289.304 17.775C293.304 17.775 296.929 18.675 300.179 20.475C303.429 22.225 305.979 24.725 307.829 27.975C309.729 31.225 310.679 34.975 310.679 39.225C310.679 43.475 309.704 47.225 307.754 50.475C305.854 53.725 303.254 56.25 299.954 58.05C296.704 59.8 293.054 60.675 289.004 60.675ZM289.004 51.525C290.904 51.525 292.679 51.075 294.329 50.175C296.029 49.225 297.379 47.825 298.379 45.975C299.379 44.125 299.879 41.875 299.879 39.225C299.879 35.275 298.829 32.25 296.729 30.15C294.679 28 292.154 26.925 289.154 26.925C286.154 26.925 283.629 28 281.579 30.15C279.579 32.25 278.579 35.275 278.579 39.225C278.579 43.175 279.554 46.225 281.504 48.375C283.504 50.475 286.004 51.525 289.004 51.525Z" fill="#C026D3"/>
<path d="M323.605 75.36L334.165 25.76C334.762 23.072 335.616 20.6187 336.725 18.4C337.834 16.1813 339.413 14.4107 341.461 13.088C343.552 11.7227 346.304 11.04 349.717 11.04C352.149 11.04 354.218 11.4667 355.925 12.32C357.674 13.1733 358.997 14.4107 359.893 16.032C360.832 17.6533 361.301 19.5947 361.301 21.856C361.301 24.1173 360.874 26.1227 360.021 27.872C359.21 29.5787 357.994 31.008 356.373 32.16C354.752 33.2693 352.725 34.1013 350.293 34.656C352.512 35.1253 354.389 36.2133 355.925 37.92C357.504 39.584 358.293 42.016 358.293 45.216C358.293 47.392 357.952 49.4187 357.269 51.296C356.586 53.1733 355.584 54.816 354.261 56.224C352.981 57.632 351.381 58.72 349.461 59.488C347.584 60.256 345.408 60.64 342.933 60.64C340.458 60.64 338.474 60.2773 336.981 59.552C335.488 58.784 334.208 57.9947 333.141 57.184L329.173 75.36H323.605ZM342.485 56.032C344.234 56.032 345.749 55.7333 347.029 55.136C348.309 54.5387 349.376 53.7493 350.229 52.768C351.082 51.7867 351.722 50.656 352.149 49.376C352.576 48.096 352.789 46.7947 352.789 45.472C352.789 43.7653 352.49 42.2507 351.893 40.928C351.296 39.6053 350.336 38.56 349.013 37.792C347.69 37.024 345.92 36.64 343.701 36.64H341.653L342.549 32.352H344.917C346.794 32.352 348.394 32.096 349.717 31.584C351.082 31.072 352.192 30.368 353.045 29.472C353.898 28.5333 354.517 27.4453 354.901 26.208C355.328 24.9707 355.541 23.648 355.541 22.24C355.541 20.3627 355.008 18.8053 353.941 17.568C352.917 16.288 351.317 15.648 349.141 15.648C347.136 15.648 345.514 16.1387 344.277 17.12C343.04 18.0587 342.08 19.3173 341.397 20.896C340.714 22.432 340.181 24.1173 339.797 25.952L333.973 53.344C334.997 54.1547 336.277 54.816 337.813 55.328C339.349 55.7973 340.906 56.032 342.485 56.032ZM382.434 24.352C385.378 24.352 387.916 24.928 390.05 26.08C392.226 27.1893 393.868 28.768 394.978 30.816C396.13 32.8213 396.706 35.1253 396.706 37.728C396.706 38.624 396.599 39.712 396.386 40.992C396.215 42.1013 395.938 43.2533 395.554 44.448H367.522C367.436 45.3013 367.394 45.92 367.394 46.304C367.394 49.248 368.268 51.552 370.018 53.216C371.81 54.8373 374.135 55.648 376.994 55.648C379.511 55.648 381.708 55.072 383.586 53.92C385.506 52.7253 386.956 51.1467 387.938 49.184H394.21C392.674 52.5547 390.306 55.3067 387.106 57.44C383.948 59.5307 380.279 60.576 376.098 60.576C371.703 60.576 368.162 59.3173 365.474 56.8C362.828 54.24 361.506 50.7627 361.506 46.368C361.506 45.1307 361.634 43.808 361.89 42.4C362.53 38.7733 363.831 35.5947 365.794 32.864C367.756 30.1333 370.167 28.0427 373.026 26.592C375.927 25.0987 379.063 24.352 382.434 24.352ZM390.498 40.224C390.626 39.3707 390.69 38.5813 390.69 37.856C390.69 35.1253 389.815 33.0133 388.066 31.52C386.359 30.0267 384.119 29.28 381.346 29.28C378.359 29.28 375.65 30.2613 373.218 32.224C370.786 34.144 369.143 36.8107 368.29 40.224H390.498ZM406.953 50.4C406.825 51.04 406.761 51.5947 406.761 52.064C406.761 53.1307 407.081 53.8987 407.721 54.368C408.404 54.8373 409.492 55.072 410.985 55.072H415.273L414.377 60H409.129C406.356 60 404.265 59.4667 402.857 58.4C401.492 57.3333 400.809 55.584 400.809 53.152C400.809 52.2133 400.894 51.296 401.065 50.4L404.713 29.728H400.233L401.065 24.928H405.609L407.145 16.096H413.033L411.497 24.928H420.585L419.753 29.728H410.601L406.953 50.4ZM419.77 42.336C420.41 38.752 421.69 35.616 423.61 32.928C425.572 30.1973 427.94 28.0853 430.714 26.592C433.53 25.0987 436.516 24.352 439.674 24.352C442.746 24.352 445.284 25.0133 447.29 26.336C449.295 27.6587 450.682 29.3227 451.45 31.328L452.602 24.928H458.49L452.282 60H446.394L447.61 53.472C446.074 55.52 444.047 57.2267 441.53 58.592C439.012 59.9147 436.239 60.576 433.21 60.576C430.479 60.576 428.068 60 425.978 58.848C423.887 57.6533 422.266 55.968 421.114 53.792C419.962 51.616 419.386 49.0987 419.386 46.24C419.386 44.96 419.514 43.6587 419.77 42.336ZM449.53 42.4C449.7 41.504 449.786 40.544 449.786 39.52C449.786 36.4053 448.847 33.952 446.97 32.16C445.135 30.3253 442.788 29.408 439.93 29.408C437.754 29.408 435.663 29.92 433.658 30.944C431.695 31.968 430.01 33.4613 428.602 35.424C427.194 37.3867 426.255 39.6907 425.786 42.336C425.615 43.232 425.53 44.2133 425.53 45.28C425.53 48.4373 426.447 50.9333 428.282 52.768C430.116 54.56 432.463 55.456 435.322 55.456C437.498 55.456 439.567 54.944 441.53 53.92C443.535 52.8533 445.242 51.3387 446.65 49.376C448.1 47.3707 449.06 45.0453 449.53 42.4Z" fill="#67E8F9"/>
</svg>
