<svg width="119" height="26" viewBox="0 0 119 26" fill="none" xmlns="http://www.w3.org/2000/svg">
<g clip-path="url(#clip0_2582_336)">
<path d="M28.6581 11.5075C29.1969 12.431 29.1969 13.569 28.6581 14.4925L23.1422 23.9485C22.6034 24.8721 21.6078 25.441 20.5303 25.441H9.49844C8.42095 25.441 7.4253 24.8721 6.88653 23.9485L1.37062 14.4925C0.831865 13.569 0.831865 12.431 1.37062 11.5075L6.88653 2.0515C7.4253 1.12791 8.42095 0.55896 9.49844 0.55896H20.5303C21.6078 0.55896 22.6034 1.12791 23.1422 2.0515L28.6581 11.5075Z" fill="#DB38F0"/>
<path d="M31.2971 11.3209C31.8358 12.2445 31.8358 13.3824 31.2971 14.3059L27.7604 20.3689C27.2216 21.2925 26.226 21.8614 25.1485 21.8614H18.0751C16.9976 21.8614 16.002 21.2925 15.4632 20.3689L11.9265 14.3059C11.3878 13.3824 11.3878 12.2445 11.9265 11.3209L15.4632 5.25792C16.002 4.33434 16.9976 3.76538 18.0751 3.76538H25.1485C26.226 3.76538 27.2216 4.33434 27.7604 5.25792L31.2971 11.3209Z" fill="#00FFFF"/>
<path d="M51.9978 3.35449V22.8881H48.0393V14.5765H39.5852V22.8881H35.6267V3.35449H39.5852V11.3862H48.0393V3.35449H51.9978ZM69.3246 14.8004C69.3246 15.3601 69.2869 15.8638 69.2115 16.3116H57.7602C57.8544 17.431 58.2503 18.3078 58.9477 18.9422C59.6452 19.5765 60.5028 19.8937 61.5207 19.8937C62.991 19.8937 64.0372 19.2687 64.6592 18.0187H68.9287C68.4763 19.5112 67.6092 20.7425 66.3274 21.7127C65.0457 22.6642 63.4717 23.1399 61.6056 23.1399C60.0976 23.1399 58.7404 22.8134 57.534 22.1605C56.3465 21.4888 55.4134 20.5467 54.7348 19.334C54.075 18.1213 53.7452 16.722 53.7452 15.1362C53.7452 13.5317 54.075 12.1231 54.7348 10.9105C55.3945 9.69778 56.3182 8.76494 57.5057 8.11195C58.6933 7.45897 60.0599 7.13248 61.6056 7.13248C63.0947 7.13248 64.4236 7.44964 65.5923 8.08397C66.7798 8.7183 67.6941 9.62315 68.3349 10.7985C68.9947 11.9552 69.3246 13.2892 69.3246 14.8004ZM65.2247 13.681C65.2059 12.6735 64.8383 11.8713 64.122 11.2743C63.4057 10.6586 62.5292 10.3508 61.4925 10.3508C60.5123 10.3508 59.6829 10.6493 59.0043 11.2463C58.3445 11.8246 57.9393 12.6362 57.7885 13.681H65.2247ZM79.735 22.8881L76.5116 18.0746L73.6559 22.8881H69.4147L74.5324 15.1082L69.3581 7.38434H73.8255L77.0206 12.1698L79.9046 7.38434H84.1458L78.9998 15.1082L84.2024 22.8881H79.735ZM92.177 23.1399C90.669 23.1399 89.3118 22.8134 88.1054 22.1605C86.899 21.4888 85.9471 20.5467 85.2497 19.334C84.5711 18.1213 84.2318 16.722 84.2318 15.1362C84.2318 13.5504 84.5805 12.1511 85.2779 10.9384C85.9942 9.72576 86.965 8.79292 88.1902 8.13994C89.4155 7.4683 90.7821 7.13248 92.2901 7.13248C93.7981 7.13248 95.1647 7.4683 96.3899 8.13994C97.6152 8.79292 98.5765 9.72576 99.2739 10.9384C99.9902 12.1511 100.348 13.5504 100.348 15.1362C100.348 16.722 99.9808 18.1213 99.2457 19.334C98.5294 20.5467 97.5492 21.4888 96.3051 22.1605C95.0799 22.8134 93.7038 23.1399 92.177 23.1399ZM92.177 19.7258C92.8933 19.7258 93.5624 19.5578 94.1845 19.222C94.8254 18.8676 95.3343 18.3452 95.7113 17.6549C96.0883 16.9646 96.2768 16.125 96.2768 15.1362C96.2768 13.6623 95.881 12.5336 95.0893 11.75C94.3164 10.9478 93.3645 10.5467 92.2335 10.5467C91.1025 10.5467 90.1506 10.9478 89.3778 11.75C88.6238 12.5336 88.2468 13.6623 88.2468 15.1362C88.2468 16.6101 88.6144 17.7481 89.3495 18.5504C90.1035 19.334 91.046 19.7258 92.177 19.7258ZM109.077 23.1399C107.569 23.1399 106.211 22.8134 105.005 22.1605C103.799 21.4888 102.847 20.5467 102.149 19.334C101.471 18.1213 101.131 16.722 101.131 15.1362C101.131 13.5504 101.48 12.1511 102.178 10.9384C102.894 9.72576 103.865 8.79292 105.09 8.13994C106.315 7.4683 107.682 7.13248 109.19 7.13248C110.698 7.13248 112.064 7.4683 113.29 8.13994C114.515 8.79292 115.476 9.72576 116.174 10.9384C116.89 12.1511 117.248 13.5504 117.248 15.1362C117.248 16.722 116.88 18.1213 116.145 19.334C115.429 20.5467 114.449 21.4888 113.205 22.1605C111.979 22.8134 110.603 23.1399 109.077 23.1399ZM109.077 19.7258C109.793 19.7258 110.462 19.5578 111.084 19.222C111.725 18.8676 112.234 18.3452 112.611 17.6549C112.988 16.9646 113.176 16.125 113.176 15.1362C113.176 13.6623 112.781 12.5336 111.989 11.75C111.216 10.9478 110.264 10.5467 109.133 10.5467C108.002 10.5467 107.05 10.9478 106.277 11.75C105.523 12.5336 105.146 13.6623 105.146 15.1362C105.146 16.6101 105.514 17.7481 106.249 18.5504C107.003 19.334 107.946 19.7258 109.077 19.7258Z" fill="#E600F4"/>
</g>
<defs>
<clipPath id="clip0_2582_336">
<rect width="118" height="25" fill="white" transform="translate(0.5 0.5)"/>
</clipPath>
</defs>
</svg>
